<svg id="Layer_1" data-name="Layer 1" xmlns="http://www.w3.org/2000/svg" viewBox="0 0 100.94 22.57"><defs><style>.cls-1{fill:#fff;}</style></defs><title>Artboard 1</title><path class="cls-1" d="M5.08,3.55V2.74h.66c-.47-.2-.9-.71-1.42-1H4.08V4.55h1.7a2,2,0,0,0,.37-1Z"/><path class="cls-1" d="M5.78,4.55h.41v-1h0A2,2,0,0,1,5.78,4.55Z"/><path class="cls-1" d="M12.54,4.55v.67a11.29,11.29,0,0,0,.65-1.32,3.53,3.53,0,0,0,.12-.34h-.77v1Z"/><path class="cls-1" d="M13.59,1.74a5.23,5.23,0,0,1-.06,1H17v.81H13.31a3.53,3.53,0,0,1-.12.34,11.29,11.29,0,0,1-.65,1.32V20.38h-1V6.68a11.68,11.68,0,0,1-1,1.13V21.38h3V4.55H18V1.74Z"/><path class="cls-1" d="M6.19,2.74h7.33a5.23,5.23,0,0,0,.06-1H6.19Z"/><path class="cls-1" d="M11.59,4.55v-1H6.19v1h4.4V7.81a11.68,11.68,0,0,0,1-1.13Z"/><path class="cls-1" d="M5.74,2.74h.45v-1H4.32C4.84,2,5.27,2.54,5.74,2.74Z"/><path d="M27.41,21.23a6.61,6.61,0,0,1-6.75-6.46q0-.19,0-.38V2.27h2V13.58a6.89,6.89,0,0,0,.92,4,4.54,4.54,0,0,0,3.87,1.9,4.54,4.54,0,0,0,3.88-1.89,6.77,6.77,0,0,0,.92-4V2.27h2V14.39a6.52,6.52,0,0,1-1.79,4.76A6.6,6.6,0,0,1,27.41,21.23Z"/><path class="cls-1" d="M33.67,2.74V14.39A6,6,0,0,1,32,18.8a6.46,6.46,0,0,1-9.14.07l-.07-.07a6,6,0,0,1-1.65-4.41V2.74h1V13.58a7.34,7.34,0,0,0,1,4.28A5,5,0,0,0,27.43,20a5,5,0,0,0,4.29-2.1,7.22,7.22,0,0,0,1-4.28V2.74h1m1-1h-3V13.58a6.39,6.39,0,0,1-.88,3.69A4,4,0,0,1,27.36,19a4,4,0,0,1-3.47-1.69,6.5,6.5,0,0,1-.83-3.69V1.74h-3V14.39a7.11,7.11,0,0,0,6.86,7.35h.49a7.14,7.14,0,0,0,5.33-2.23,7.06,7.06,0,0,0,1.93-5.1V1.74h0Z"/><path d="M48.2,20.88l-5.6-8H41.31v8h-2V2.27h3c2.46,0,4.24.45,5.29,1.34a4.84,4.84,0,0,1,1.73,3.91,5,5,0,0,1-1.08,3.27,4.8,4.8,0,0,1-2.86,1.74l-.76.21,5.94,8.18H48.2Zm-6.89-9.6h1.43c3.89,0,4.7-2,4.7-3.71S46.65,4,42.84,4H41.31v7.22Z"/><path class="cls-1" d="M42.31,2.74q3.5,0,5,1.22a4.37,4.37,0,0,1,1.53,3.56,4.56,4.56,0,0,1-1,3,4.31,4.31,0,0,1-2.58,1.56l-1.5.32.9,1.24,4.91,6.77H48.46l-5.3-7.67-.32-.39h-2v8h-1V2.74h2.47m-1.47,9h1.9c4.53,0,5.2-2.64,5.2-4.21s-.66-4-5.09-4h-2v8.21m1.47-10H38.84v19.6h3v-8h.5l5.6,8h3.62L45.49,13a5.32,5.32,0,0,0,3.15-1.92,5.57,5.57,0,0,0,1.2-3.55,5.36,5.36,0,0,0-1.9-4.29Q46.2,1.74,42.31,1.74Zm-.47,9V4.55h1q4.09,0,4.09,3,0,3.21-4.2,3.21h-.89Z"/><rect x="54.48" y="2.27" width="1.96" height="18.6"/><path class="cls-1" d="M55.94,2.74v17.6h-1V2.74h1m1-1h-3v19.6h3V1.74Z"/><polygon points="63.59 6.41 63.59 20.88 61.63 20.88 61.63 1.69 75.92 16.64 75.92 2.27 77.88 2.27 77.88 21.32 63.59 6.41"/><path class="cls-1" d="M77.38,2.74V20.08L64.84,7l-1.72-1.8V20.38h-1V2.93L74.7,16.09l1.72,1.8V2.74h1M61.13.44V21.38h3V7.65L78.38,22.57V1.74h-3V15.4L61.13.44Z"/><path d="M91.76,21.24a9.1,9.1,0,0,1-6.69-2.82,9.41,9.41,0,0,1-2.79-6.81A9.75,9.75,0,0,1,96.11,2.74a11.48,11.48,0,0,1,3.26,2.57L98,6.61a7.7,7.7,0,0,0-13.75,4.95,7.46,7.46,0,0,0,2.51,5.77,7.53,7.53,0,0,0,5.1,2.1,6.42,6.42,0,0,0,4.25-1.59A5.74,5.74,0,0,0,98.24,14l.05-.55h-6V11.67h8.1v.15a12.94,12.94,0,0,1-.5,3.76,7.82,7.82,0,0,1-1.61,2.76A8.33,8.33,0,0,1,91.76,21.24Z"/><path class="cls-1" d="M92,2.39a9,9,0,0,1,3.81.84,10.51,10.51,0,0,1,2.79,2.11l-.62.6a7.84,7.84,0,0,0-6-2.75,8,8,0,0,0-5.92,2.44,8.16,8.16,0,0,0-2.4,6,7.94,7.94,0,0,0,2.75,6.11A8,8,0,0,0,91.84,20a6.91,6.91,0,0,0,4.57-1.71A6.23,6.23,0,0,0,98.7,14l.11-1.1h-6v-.78h7.1a12.06,12.06,0,0,1-.47,3.25A7.35,7.35,0,0,1,98,18a7.86,7.86,0,0,1-6.2,2.73,8.51,8.51,0,0,1-6.33-2.67,8.81,8.81,0,0,1-2.65-6.46,8.79,8.79,0,0,1,2.69-6.53A8.84,8.84,0,0,1,92,2.39m0-1a9.88,9.88,0,0,0-7.26,3,9.83,9.83,0,0,0-3,7.24,9.85,9.85,0,0,0,3,7.11,9.55,9.55,0,0,0,7,3,8.88,8.88,0,0,0,6.94-3.07,8.31,8.31,0,0,0,1.76-2.93,13.37,13.37,0,0,0,.52-3.91v-.66h-9.1V14h5.89a5.24,5.24,0,0,1-1.94,3.55A5.91,5.91,0,0,1,91.84,19a7,7,0,0,1-4.76-2,7,7,0,0,1-2.35-5.4,7.16,7.16,0,0,1,2.11-5.25,7,7,0,0,1,5.22-2.15,7.15,7.15,0,0,1,5.88,3.21l2.11-2a12.38,12.38,0,0,0-3.75-3A9.94,9.94,0,0,0,92,1.45h0Z"/><rect x="3.04" y="2.78" width="2.43" height="0.78"/><rect x="3.1" y="3.44" width="2.37" height="1.81"/><rect x="13.54" y="2.28" width="7.12" height="1.75"/><path class="cls-1" d="M20.16,2.74v.79H14V2.74h6.12m1-1H13V4.53h8.12V1.74Z"/><rect x="5.08" y="2.78" width="16.22" height="0.75"/><rect x="34.17" y="11.23" width="8.79" height="1.66"/><path class="cls-1" d="M42.46,11.74v.66H34.67v-.66h7.79m1-1H33.67V13.4h9.79V10.74Z"/><rect x="32.77" y="11.73" width="10.71" height="0.66"/><rect class="cls-1" x="40.98" y="12.39" width="3.53" height="1"/><rect x="77.88" y="10.51" width="4.18" height="2"/><path class="cls-1" d="M81.56,11v1H78.38V11h3.18m1-1H77.38v3h5.18V10Z"/><rect x="77.06" y="11.01" width="6.21" height="1"/><circle cx="2.27" cy="2.27" r="1.9"/><path class="cls-1" d="M2.27.74A1.52,1.52,0,1,1,.75,2.27,1.52,1.52,0,0,1,2.27.74m0-.75A2.27,2.27,0,1,0,4.55,2.27,2.27,2.27,0,0,0,2.27,0h0Z"/><circle cx="5.47" cy="5.83" r="1.9"/><path class="cls-1" d="M5.47,4.31A1.52,1.52,0,1,1,4,5.83H4A1.53,1.53,0,0,1,5.47,4.31m0-.75A2.27,2.27,0,1,0,7.74,5.83h0A2.27,2.27,0,0,0,5.47,3.56Z"/><path d="M46.77,12.93a4.19,4.19,0,0,1-1.56.6,12.47,12.47,0,0,1-2.59.3H38.35V13.4h4.34a10.86,10.86,0,0,0,4.85-1.2h0A3.75,3.75,0,0,1,46.77,12.93Z"/><path d="M45.84,9.84a4.19,4.19,0,0,1-1.56.6,12.47,12.47,0,0,1-2.59.3H37.42v-.43h4.34a10.86,10.86,0,0,0,4.85-1.2h0A3.75,3.75,0,0,1,45.84,9.84Z"/></svg>