<svg id="Layer_1" data-name="Layer 1" xmlns="http://www.w3.org/2000/svg" viewBox="0 0 400 400"><defs><style>.cls-1{fill:none;}.cls-2{fill:#cf2026;}</style></defs><title>logo-turing-error</title><path class="cls-1" d="M134.05,157.52h63v117h8.74v-117h77.53V150.4H125.49A14.08,14.08,0,0,1,134.05,157.52Z"/><path class="cls-1" d="M108.15,147.16l-.85-2.39a4.89,4.89,0,1,0,.89,2.8C108.19,147.43,108.16,147.29,108.15,147.16Z"/><path class="cls-1" d="M117,150.43h.43l.14,0H117Z"/><path class="cls-1" d="M121.55,159a4.89,4.89,0,1,0,4.9,4.9A4.91,4.91,0,0,0,121.55,159Z"/><path class="cls-1" d="M200,7.54C93.88,7.54,7.54,93.88,7.54,200S93.78,392.37,199.83,392.46h1C306.56,392,392.46,305.85,392.46,200,392.46,93.88,306.12,7.54,200,7.54Zm0,371.29C101.4,378.83,21.17,298.6,21.17,200S101.4,21.17,200,21.17,378.83,101.4,378.83,200,298.6,378.83,200,378.83Z"/><path class="cls-1" d="M200,26.07c-95.91,0-173.93,78-173.93,173.93s78,173.93,173.93,173.93,173.93-78,173.93-173.93S295.91,26.07,200,26.07Zm92.44,140.57H214.91v117h-27v-117H135.3a14,14,0,1,1-27.44-5.83,14,14,0,1,1,8-19.55H292.44Z"/><path class="cls-2" d="M103.29,133.54a14,14,0,1,0,4.56,27.28,14,14,0,1,0,27.44,5.83h52.61v117h27v-117h77.53V141.27H115.81A14,14,0,0,0,103.29,133.54Zm18.26,35.22a4.92,4.92,0,1,1,4-2.11A4.89,4.89,0,0,1,121.55,168.76Zm-18.26-16.29a4.9,4.9,0,1,1,4-7.71l.85,2.39c0,.14,0,.27,0,.41A4.91,4.91,0,0,1,103.29,152.47Zm180-2.07v7.12H205.78v117H197v-117h-63a14.08,14.08,0,0,0-8.56-7.12Zm-165.85,0H117v0h.57Z"/><path class="cls-2" d="M200,21.17C101.4,21.17,21.17,101.4,21.17,200S101.4,378.83,200,378.83,378.83,298.6,378.83,200,298.6,21.17,200,21.17Zm0,352.75c-95.91,0-173.93-78-173.93-173.93S104.09,26.07,200,26.07s173.93,78,173.93,173.93S295.91,373.93,200,373.93Z"/><path class="cls-2" d="M200,2.64C91.18,2.64,2.64,91.18,2.64,200S91.18,397.36,200,397.36,397.36,308.82,397.36,200,308.82,2.64,200,2.64Zm.81,389.82h-1C93.78,392.37,7.54,306.07,7.54,200S93.88,7.54,200,7.54,392.46,93.88,392.46,200C392.46,305.85,306.56,392,200.81,392.46Z"/></svg>