<svg id="Layer_1" data-name="Layer 1" xmlns="http://www.w3.org/2000/svg" viewBox="0 0 57.59 57.42"><defs><style>.cls-1,.cls-3{opacity:0.5;}.cls-2,.cls-3{fill:#231f20;}</style></defs><title>bg-houndstooth</title><g class="cls-1"><polygon class="cls-2" points="0.16 42.97 14.54 28.59 0.16 28.59 0.16 14.21 -14.23 28.59 -14.23 28.59 -14.23 28.59 -14.3 28.66 -28.61 28.66 -57.38 57.42 -43.12 57.42 -43.08 57.38 -43.08 57.37 -43.07 57.37 -28.69 42.99 -28.69 57.37 -14.31 57.37 -28.6 71.67 -28.6 86.18 0.17 57.42 0.16 57.42 0.16 42.97"/></g><polygon class="cls-3" points="57.59 -14.62 71.97 -29 57.59 -29 57.59 -43.38 43.2 -29 43.2 -29 43.2 -29 43.13 -28.93 28.82 -28.93 0.05 -0.17 14.31 -0.17 14.35 -0.21 14.35 -0.21 14.36 -0.21 28.74 -14.59 28.74 -0.21 43.12 -0.21 28.82 14.08 28.82 28.59 57.59 -0.17 57.59 -0.17 57.59 -14.62"/><g class="cls-1"><polygon class="cls-2" points="57.59 42.97 71.97 28.59 57.59 28.59 57.59 14.21 43.2 28.59 43.2 28.59 43.2 28.59 43.13 28.66 28.82 28.66 0.05 57.42 14.31 57.42 14.35 57.38 14.35 57.37 14.36 57.37 28.74 42.99 28.74 57.37 43.12 57.37 28.82 71.67 28.82 86.18 57.59 57.42 57.59 57.42 57.59 42.97"/></g></svg>